<?xml version="1.0" encoding="utf-8"?>
<!-- Generator: Adobe Illustrator 23.0.1, SVG Export Plug-In . SVG Version: 6.00 Build 0)  -->
<svg version="1.1" id="Layer_1" xmlns="http://www.w3.org/2000/svg" xmlns:xlink="http://www.w3.org/1999/xlink" x="0px" y="0px"
	 viewBox="0 0 200 110" style="enable-background:new 0 0 200 110;" xml:space="preserve">
<style type="text/css">
	.st0{fill:#FFC9CF;}
</style>
<g>
	<path class="st0" d="M45.44,35c0,5.81-3.89,13.92-4.94,14.55c-0.24,0.14-0.53,0.19-0.86,0.19c-2.11,0-6-2.45-6-4.03
		c0-0.24,0.05-0.43,0.24-0.62c1.82-1.97,5.9-8.11,5.9-9.89c0-0.34-0.14-0.53-0.43-0.53c-1.63,0-7.15,5.04-8.83,6.72
		c-2.88,2.88-4.94,6.05-4.94,7.54c0,0.96,0.48,1.3,6.67,1.73c6.14,0.43,10.66,2.69,10.66,7.25c0,5.76-4.94,10.75-12.34,10.75
		c-5.95,0-10.03-2.59-10.85-3.36c-0.43-0.38-0.86-1.87-0.86-3.02c0-0.77,0.29-1.63,1.06-1.63c0.14,0,0.34,0.05,0.53,0.14
		c1.78,0.77,4.66,1.34,7.92,1.34c4.85,0,9.75-2.54,9.75-4.37c-0.14-2.5-15.17,2.11-19.35-6c-0.29-0.58-0.43-1.3-0.43-2.06
		c0-3.6,2.78-9.07,6.43-12.63c3.7-3.55,9.79-8.11,15.03-8.11c0.96,0,1.92,0.14,2.78,0.48C44.67,30.25,45.44,32.41,45.44,35z"/>
	<path class="st0" d="M70.83,49.21c0,3.89,0.05,14.02,0.67,18.34c0,0.58-1.58,1.2-3.7,1.2c-1.44,0-2.83-0.34-3.07-1.3
		c-0.91-3.55-1.1-8.5-1.1-13.01c-1.39-0.1-2.93-0.19-4.37-0.19c-0.86,0-1.73,0.05-2.54,0.1c0,5.42,0,12.87,0.43,15.94
		c0,0.53-1.54,1.2-3.5,1.2c-1.39,0-2.69-0.29-2.93-1.25c-0.91-3.46-1.44-9.5-1.58-14.74c-0.1,0.05-0.14,0.05-0.24,0.05
		c-2.5,0-4.32-2.64-4.32-3.46c0-0.82,1.87-1.49,4.42-2.21v-1.01c0-0.34,0-0.67,0-1.01c0-7.63,0.96-14.31,1.92-16.9
		c0.29-0.82,1.06-1.06,2.02-1.06c2.11,0,4.61,2.11,4.61,4.61c0,1.92-0.67,9.27-0.77,13.63c1.06-0.14,2.02-0.24,2.93-0.24
		c1.34,0,2.69,0.1,3.94,0.19c0-7.68,0.14-13.25,1.06-15.99c0.24-0.77,1.06-1.06,1.97-1.06c2.16,0.05,4.9,2.16,4.9,4.61
		c0,0.14,0,0.29,0,0.38C71.26,38.74,70.83,45.32,70.83,49.21z"/>
	<path class="st0" d="M100.01,68.55c-1.39,0-2.64-0.24-3.17-0.72c-0.29-0.29-0.91-2.88-1.78-7.06c-2.21-0.48-5.33-0.91-7.97-0.91
		c-0.96,0-1.87,0.05-2.74,0.1c-1.06,3.41-1.92,6.29-2.16,7.78c-0.24,1.2-1.78,1.63-3.36,1.63c-1.97,0-3.41-0.62-3.41-1.63
		c0-1.1,0.62-3.74,1.58-7.15c-0.77,0-3.6-2.45-3.6-4.66c0-1.49,2.83-1.63,5.57-1.92c3.26-10.27,7.92-24.29,9.7-25.15
		c0.43-0.19,0.86-0.29,1.25-0.29c1.44,0,2.69,1.06,4.08,1.06c0.29,0,0.62-0.05,0.91-0.05c0.53,0,0.91,0.1,1.1,0.29
		c1.54,1.49,8.59,35.91,8.59,37.3C104.62,68.07,102.17,68.55,100.01,68.55z M91.52,41.29c-1.3,2.3-3.22,7.25-4.99,12.29
		c2.88,0,5.42,0.24,7.34,0.67C92.62,47.67,91.52,41.29,91.52,41.29z"/>
	<path class="st0" d="M130.4,63.27c0,1.39-0.53,2.59-3.55,2.59c-2.11,0-5.28-0.53-8.02-2.93c-2.54-2.26-4.18-4.9-5.23-7.25
		c0,4.03,0.1,7.87,0.43,10.75c0,0.1,0,0.24,0,0.34c0,1.44-0.82,2.02-1.87,2.02c-1.78,0-4.22-1.49-4.42-3.02
		c-0.48-3.74-0.62-8.98-0.62-14.3c0-5.14,0.14-10.42,0.34-14.55c-2.06-0.38-4.46-2.88-4.46-4.27c0-1.2,6.05-2.78,12.82-2.78
		c6.24,0,12.77,1.82,12.77,9.26c0,8.64-6.77,13.15-8.26,13.87c0.1,0.91,0.48,2.26,2.16,4.66c3.36,4.9,7.63,4.03,7.92,5.38
		C130.4,63.08,130.4,63.18,130.4,63.27z M114.99,36.25c-0.14,0-0.29,0-0.43,0c-0.43,4.46-0.77,10.27-0.91,15.89
		c2.3-1.15,7.49-4.75,7.49-11.57C121.09,38.02,118.4,36.25,114.99,36.25z"/>
	<path class="st0" d="M161.45,67.83c0,1.25-1.15,1.82-2.21,1.82c-1.3,0-2.69-0.67-3.31-1.54c-0.43-0.58-0.72-14.69-0.77-19.25
		c-1.63,4.9-4.27,13.82-5.18,18.43c-0.19,0.96-0.77,1.29-1.44,1.29c-1.39,0-3.26-1.54-4.03-2.78c-0.62-0.96-3.26-9.17-5.81-17.04
		c-0.05,2.59-0.14,5.18-0.14,7.78c0,3.5,0.14,7.01,0.58,10.42c0,0.48-1.44,1.49-3.07,1.49c-1.25,0-1.78-0.82-2.02-1.87
		c-1.3-5.57-1.73-14.35-1.73-19.78c0-7.3,0.72-12.58,1.54-15.17c0.19-0.72,1.63-0.91,2.64-0.91c2.4,0,3.22,0.67,3.74,1.92
		c0.67,1.73,6.24,17.19,7.68,21.22c0.82-4.99,5.28-21.94,6.58-23.33c0.38-0.43,1.3-0.62,2.26-0.62c1.68,0,3.65,0.53,4.18,1.3
		c0.67,0.96,0.48,19.92,0.48,29.76c0,3.46,0,6,0.05,6.67C161.45,67.74,161.45,67.79,161.45,67.83z"/>
	<path class="st0" d="M170.14,68.75c-1.44,0-2.83-0.34-3.07-1.3c-1.44-5.33-1.97-13.78-1.97-19.2c0-7.73,0.82-13.35,1.78-16.03
		c0.29-0.82,1.06-1.06,1.97-1.06c2.16,0,4.85,2.21,4.85,4.7c0,2.35-0.58,9.36-0.58,13.44c0,3.89,0.05,13.97,0.67,18.29
		C173.79,68.12,172.01,68.75,170.14,68.75z"/>
</g>
</svg>
