<?xml version="1.0" encoding="utf-8"?>
<!-- Generator: Adobe Illustrator 18.0.0, SVG Export Plug-In . SVG Version: 6.00 Build 0)  -->
<!DOCTYPE svg PUBLIC "-//W3C//DTD SVG 1.1//EN" "http://www.w3.org/Graphics/SVG/1.1/DTD/svg11.dtd">
<svg version="1.1" id="Слой_1" xmlns="http://www.w3.org/2000/svg" xmlns:xlink="http://www.w3.org/1999/xlink" x="0px" y="0px"
	 viewBox="0 42 1024 678" enable-background="new 0 42 1024 678" xml:space="preserve">
<path fill="#000000"      d="
	M1009,616.8l0.6-3.9l5.2-3.9l4-9.7l-6.4-5.2V586l-2.4-6l-4.4-9.7l-5.1-4.5l-1.3-5.8l3.2-8.8l0.8-495.2h-78.2v5.1l-3.3-5.6
	l-660.2-1.1l2.6,7.7h-3h-7.1v4.1v4.1h7.1l0.4,3h-2.4l-4.6,5l5.9,5.7l4.7,4.4v8.3h5.1h5.1l-2.2,6.6l4.9,3.4l5.4-6h5.1l5.8,4.7
	l-1.9,4.1l-1.5,6l3.7,4.4v5.1h-8.1h-6.1l-1.5-3.6l-3.9-4.6l-7.1-9.7l-2.6,2.5l1.9,5.4l10.3,10h-9.4l-4.2,7.4l-1.9,6.3l1.9,14.1
	l1.9,8.3l7.7,6.5l2.5,3.5l-1.4,2.8c0,0-3.9,9-5.2,11c-1.3,1.9-10.5,15.5-10.5,15.5v9.9l9.4,6.2l6.2,3.9l3.1,2.6c0,0,3.2,7.1,3.1,9
	c-0.1,1.9-0.2,12.2-0.2,12.2s6.8,5.2,6.8,7.1c0,1.9,0,7.7,0,7.7l7.4-6.4l5.2,10.3l7.5,5.8l4.3-4.5v-11.3l6.1-5.6v-8.6l-10.3-10.7
	l-7.6-9.9l-2.5-4.8l2.6-2.6l2.9-2c0.4,0.2,0.9,0.5,1.7,0.8c2.7,1,6.1,2,9,2.8l-0.8,2.4v4.8l4.4,8.7l3.3,9l5.2,6.4l4.5,4.9l-1.9,9.5
	h-4.4l-3.9,3.2l-1.9,5l-2.1,10.2l-7.3,9.6v7.4l0.1,9l-1,4.2h-4.1l-0.4,8.6l6.4,7.6l3.2,3.4l-3.2,4.7h-3l-0.8,5.5l1.3,6.3l3.9,5.7
	l0.6,5.1l-1.9,5.8l3.2,5.1l1.9,6.4v5.6H309l-4.8,4.3l-0.6,2.9l3.9,3.1l3.9,6.9h-7.4l-6.2-6.9l-5.2-3.2l-1.9,6.5l-3.9,7.1l-2.6,7.7
	l-5.4,7.7l-4.3-8.4v-1v-1.5h6.1v-8.1h-6.1v4.1h-10.2v-0.5l-2.3-6.4l2.1-4.2l1.4-6.7l4.5-3.2l4.5-6.4l3.9-2.6l1.9,3.9l-5.8,5.2
	l-1.9,6.9l-1.9,6l4.5,0.6l4.5-3.6l2.6,4.2l3.9-4.2l-0.6-6.7l-1.9-3.9l3.2-1.9l1.3-4.5l3.9,5.8l3.9,2.6v-4.5l3,3.2l5.9-4.5l4.6-5.2
	l-4.6-2.6l-0.7-7.7v-6.6l-3.9-2.4l-4.6-0.6c0,0-2.7,1.3-2.7,3.2s0,8,0,8l-3.6,2.4l1.4-9.7l1.4-6.4l-2.5-6.8l0.4-3.8h1l4.6-4.6
	l-4.3-6.6l3.8-7.2v-6l-8.1-6.3l0,0v-5.9l4.4,4.6l5.9-1.3l0.6-6.4l-0.7-5.8v-2.3l-1.9-6.1l-5-12.2l-4.4-0.6l-4.5-3.2l3.2,9l0.7,4.8
	l0.6,4.8l-6.4-2.6l-5.8,8.4l-4.5,5.8l-3.2,6.4l-1.3,5.2l0.6,5.8l-4.5,3.9l-5.8,2.6l-7.1,2.6l-7.1,4.5l-5.2,7.7l-7.7,11l-7.7,10.3
	l-3.9,13.3l5.8,5h7.1l6.4-6.5l5.8-2.7l2.6,4.4l-7.1,2.5l-16.1,5.8l-8,1.3l-3.5-7.1l5.6-14.8l14.2-23.8l11.6-12.2l3.2-8.4l5.8,1.9
	l7.1-1.3l1.9-5.2l3.9-9.7l4.5-9.7l5.2-7.1l5.8-4.5l0.6-3.9l-3.2-5.2l-5.2,2.6l1.7-9l-5.4-7.7v-8.8l5.4,3.7l0.8-7.1l-2.5-9.7
	l-4.5,3.2l-1.9,5.4l-0.6,4.5h-4.7l-1.1-9.6l5.2-5.9l-2.6-4.6l-9.9,3.8l-4.8,3.2v6l5.4,6.7l0.8,2.8l-1.9,5.8l-4.5-0.4l1.3-7.7H243
	l-2.6-4.9l-0.6-5.2h-5.9l-6.1,0.9v4.1l1.4,7.5l-7-7.7l-0.6-9l-4.5-3.9l-2.6-3.9c0,0,0-8.4-1.3-6.4c-1.3,1.9-4.3,5.8-4.3,5.8
	l-8.5,7.1l-12.2-0.6l-7.1,0.6l-9-2.6l-4.5-2.6l-5.2,1.9l-5.8-1.9l-6.4,1.3l-5.8-5.2l-8.4-0.6l-12.9,1.9L98,218.6l-9.7-6.4l-4.5-3.8
	l-13.5-7h-6l-4.3-3.7l-7.7-2.7l-11-5.2l-11.6-8.4l-7.7-2.6l-9.2-2.6l-7.3,0.6v4.3l6,4.1c0,0,2.7,0.6,2.7,2.6s-1.2,5.2-1.2,5.2
	l-0.6,6.4l-3.2,11.6L6,218.6c0,0-2.5,3.2,0,5.2s5.1,14.2,5.1,14.2l2.6,19.3l2.6,9.7l4.5,6.4l4.5,3.2l3.2,5.8c0,0,7.7,3.2,7.7,5.8
	c0,2.6,1.9,9,1.9,9l6.4,4.5l5.2,16.1l5.8,21.3l1.9,18l1.9,17.4l5.2,9.5l5.2,6.6c0,0,0.6,6.4,2.6,10.3c1.9,3.9,5.8,14.8,5.8,16.8
	c0,1.9-1.3,20.1-1.3,20.1l1.9,16.3h5l-0.4-6.5l-0.6-6.6l3.2-3.3l3.2-2l5.2,1.3l1.9,5.8l7.1,3.2l9.7,2.6l6.4,4.9l-12.2,4.1l-7.1,2.6
	l-4.5,3.9l1.3,4.6l2.6,4.6h-7.5l-3.4-9l-3.2-4c0,0-5.8-0.7-4.5,1.2c1.3,1.9,6.4,14.8,6.4,14.8s-0.6,10.3-0.6,12.2s1.9,3.2,4.5,5.1
	c2.6,1.9,11.6,5.1,11.6,5.1l4.5-5.2l5.8-2.6l4.5,3.9l5.2,3.9l-9.7,3.2l-2.6,9l-3.2,3.2l0.6,4.5L116,533l-6.4,5.2l0.6,7.7l-5.8-2.6
	l-3.2-3.2l-0.9,5.8l5.6,7.1v6.7l-1.1,5.1l-3.6-5.1h-3.4l-1.8-13.5l1.3-18.8l-2.6-8.4l-0.6-8.4l-3.2-2.2l-1.3,70.6h5.2l1.3-5.1
	l5.8,1.2l4.5,3.5l7.1,7.4l6.4-3.9c0,0,4.5-7.1,5.2-4.5c0.6,2.6,6.4,2.1,6.4,2.1l6.4-3.7h2.5l2,5.1l8.4,1.2l9,1.2l8.4-3.3l5.8,6.3
	l5.8,8.8H177h-4.1c0,0,1.7,3.8,4.3,5.1c2.6,1.3,7.7,3.7,7.7,3.7l1.9-3.7l4.5,4h6.9l5.3-5l4.5-3.1h8.4l12.2,8c0,0,3.9,3.1,5.2,5
	c1.3,1.9,9,8.3,9,8.3l8.4,15.4l7.1,7.1l-2.6,4.5l1.3,16.7l2.6,16.1l0.6,9.7l2.6,7.4l8.4,7.4h14.3c0,0,13.4,4.2,16,6.1
	s13.5,1.2,14.2,3.1c0.6,1.9,9.7-0.1,9.7-0.1l8.4,0.8l13.5-6c0,0,19.3-5.2,19.3-7.1s5.2-8.4,5.2-8.4l9.7-4.5l9.7-1.3l10.3,1.3
	l10.3-2.6l9.7-0.6l7.7,2.8l9,2.2h8.9l14.3,8.7l2.6,6.3l12.2-3.3l5.8-3.4l8.4-0.2h7.4l2.9,2.5l7.1-5.3l19.3-8.4l6.4-4.5l7.7-2.6
	l7.7,5.8l7.7,5.2l19.3-3.9l14.2-3.2l12.2-10.3c0,0,8.4-7.1,11-6.4c2.6,0.6,43.2-9,43.2-9l4.5,0.6l3.9-3.9l5.2-6.4l5.2,1.3l9.7,2.3
	l27.7-5.4h12.5l7.4-1.7l11.6-5.9l7-5.2l267.3,0.6v-5l-6.6-6.6L1009,616.8z M299.8,200.3l-4.6,5.1h-4.6v7.1v6.1l6.9,9.6
	c0,0,0.1,0.7,3.9,3.3c3.8,2.6,10.5,7.3,10.5,7.3l0.5,8.1l-7.7-4.5l-4.5-5.2l-5.1-4.5l-4,5.2l0.4,6.4l-6-8.4v-10.3l-4.8-14.1
	l-2.9-3.9l-6,1.3l-6.7-2.6l9.2-3.2v-9l6.3,2.5l3.9-1.9l6.5,0.6l4-5.2l-9.1-5.8l-3.2-3.9l1.9-5.8l-4.5-2.4l2.3-4.7v-5
	c0,0,3.9,0.5,3.9,2.4s-0.5,7.5-0.5,7.5l5.9,5.3h4.9l2.9,5.5l5.8,3.1l5.8,4.4l-0.6,6.7l-0.4,2.7H299.8z M270,318.5l4.5,6.4l2.6,4.5
	l2.7,4.5l2.7-5.8v-5.5l3.3,4.4l-0.4,7.3h0.3l-0.3-0.1l-3.9,3.7l-5.4,2.3l-4.9,2.1l3.9-9.7l-5.2-1.9l-0.6-3.9l-1.9-3.9L270,318.5z
	 M219.8,415.7l8.9-5.8l3.1-0.6v-5l2-1.3l4.4,6l-5,4l-2.6,2.1l-3.2,5.2l-7.7,3.9l5.8-9L219.8,415.7z M266.8,427.3l-5.2-8.4l-7.4-5.8
	l-3.1-1.3v10.7l-3.4-10.7l-3.7,2.6v4.1v6.1v8.1l-4.1-5.4v-4.8v-6.1l-4.6,6.3l-4.5,5.2v4.7l-3.6-4.7l7.2-9.7l2.6-3.2l2.6-3.2l0.7-4.3
	l4.7,1.8h4.1v-4.6l-4.1-6.6v-11.2l-1.6-0.6l5.8-2.4l2.6-4.3l2-5.8l4.5,3.9l1.3,6.3l-7.7,7.9l0.6,6.4l3.9,9l3.9,2.8l3.5,10.4h10.4
	l-2.9,3.2L266.8,427.3z M233.9,223.6h5.1v5.1h-5.1V223.6z M294.8,337.3h5.1v6.1h-5.1V337.3z M235.9,98.8h-2v-5.1h2V98.8z M244,107.9
	h-5.1v-5.1h5.1V107.9z M274.5,109.9h6.1v5.1h-6.1V109.9z M207.5,121.1h-7.1V115h7.1V121.1z M207.5,124.1h5.1v3h-5.1V124.1z
	 M227.8,118h-5.1V113h5.1V118z M252.1,136.3h7.1v10.2h-7.1V136.3z M229.8,136.3h9.6l3.6,9.9l1.3-5.2l4.8,5.5v4.1h6.1v4.6l-2.8,1.5
	l3.2,7.9l-3.4,3.3h-2.5l-5.3-3.5l-8.4,0.4v-9.6l3-8.6h-9.1v3.6l-1.8,2.5l2.2,6.4l3.7,5.8h-5.6c0,0-5.3-4.3-5.1-6.3s-5.1-3.3-5.1-3.3
	l-5.1-2.6L208,146c0,0-2.4-5.3-3.6-5.1c-1.2,0.2,3.5-5,3.5-5l5-4.7l10,5.1l5.1,4.6l1.8,0.5V136.3z M225.5,127.1l4.4-6.1
	c0,0,6.5-4.9,6.2-5.9c0,0,4.2-4.1,6.5-5.7c2.3-1.6,6.9,0,6.9,0l3,3l2.8,5.1l3.8,3.5v5.6l-6.9,6.2l-2.9-6l-5.5-5.8h-2l2,6.1v4.4
	l-0.3,4.2l-9.5-8.9l-0.4,5.3h-5.6L225.5,127.1z M227.8,62.2h-10.2v-7.1h10.2V62.2z"/>
</svg>
